<?xml version="1.0" encoding="UTF-8"?>
<svg id="Layer_1" xmlns="http://www.w3.org/2000/svg" version="1.1" viewBox="0 0 792 792">
  <!-- Generator: Adobe Illustrator 30.2.1, SVG Export Plug-In . SVG Version: 2.1.1 Build 1)  -->
  <defs>
    <style>
      .st0 {
        fill: #7eb957;
      }

      .st1 {
        fill: #fff;
      }
    </style>
  </defs>
  <path class="st0" d="M580,675c-118.8,10.7-238.4,10.7-357.3,0-39.7-3.8-72.1-40.6-72.1-80.1V238c0-39.5,32.4-76.3,72.1-80.1,118.8-10.7,238.4-10.7,357.3,0,39.7,3.8,72.1,40.6,72.1,80.1v356.9c0,39.5-32.4,76.3-72.1,80.1Z"/>
  <g>
    <path class="st1" d="M461.5,584l-112.7.3c-13,0-25-4.1-33.8-13.5-6.4-6.9-7-16.2-6.2-25.6l.5-6.5c.1-1.3,3.6-1.1,7.6-1.8l-30.3-203.3-12.4-.3-.7-15.7c24.6-8,48-10.6,73.9-14-11.6-1.2-23.2-.4-36,.8l18.8-30.8c20-8.1,40-15.2,61.1-21.5,8.1-2.4,17.7-1.3,25.7,1.2,20.2,6.2,39.8,12.7,58.8,20.6l16.5,30.1-33.5-.4c23.6,3.8,46.1,5.7,70.2,13.1.6,4.9.3,10.7-.1,16.1l-12.1,1.3-30,201.8,7.4,2.3c0,6.9,1.1,15.9-1,23.3-3.5,12.3-17.5,22.6-31.7,22.6ZM471.5,537.4l30.9-209.3c-37.4-5.6-72.8-6.9-109.5-6.5-31.1.4-60.9,1.3-92,6.6l31.2,209.3h139.4Z"/>
    <path class="st1" d="M431.2,609.4c-14.6,2.3-14.2,17.4-30.6,17-17.4-.4-15.1-16-30.4-17.6-9.7-1-16.5-7.7-16.6-17h95.9c-.2,9.7-8.3,16.1-18.4,17.7Z"/>
    <polygon class="st1" points="401.4 211.1 386.3 222.8 394.5 242.7 382.5 247.9 368.8 222.8 401.3 194.3 433.9 222.8 421.3 247.4 408.4 242.7 417 222.8 401.4 211.1"/>
    <path class="st1" d="M446.3,414.3l-52.7,68.5c-1.9,2.4-5.8.5-4.9-2.5l11.5-40.2c.5-1.8-.8-3.5-2.6-3.6l-28.9-.7c-1.9,0-3.2-1.9-2.6-3.7l24.8-70.8c.4-1.1,1.5-1.9,2.6-1.9h27.6c2,0,3.3,2,2.6,3.9l-15.8,41.6c-.7,1.8.6,3.7,2.5,3.8l33.8,1c2.3,0,3.5,2.7,2.1,4.5Z"/>
  </g>
</svg>