<svg width="32" height="32" viewBox="0 0 64 64" fill="none" xmlns="http://www.w3.org/2000/svg">
  <rect width="64" height="64" rx="14" fill="#0f1923"/>
  <!-- Lantern top cap -->
  <path d="M24 16h16v4c0 1-1 2-2 2H26c-1 0-2-1-2-2v-4z" fill="#4ade80"/>
  <!-- Lantern ring / handle -->
  <path d="M29 8a3 3 0 0 1 6 0v3h-6V8z" stroke="#4ade80" stroke-width="2" fill="none"/>
  <!-- Lantern body -->
  <path d="M22 22h20l-2 26H24L22 22z" stroke="#4ade80" stroke-width="2.5" stroke-linejoin="round" fill="none"/>
  <!-- Bottom base -->
  <path d="M24 48h16v3c0 1-1 2-2 2H26c-1 0-2-1-2-2v-3z" fill="#4ade80"/>
  <!-- Bottom finial -->
  <circle cx="32" cy="56" r="2" fill="#4ade80"/>
  <!-- Lightning bolt -->
  <path d="M35 27l-5 9h4l-2 9 7-11h-5l3-7z" fill="white"/>
</svg>
